<svg xmlns="http://www.w3.org/2000/svg" enable-background="new 0 0 70 70" viewBox="0 0 70 70" id="shopping-cart"><path d="M29.9379883,45.3505859c0.019104,0,0.0385742-0.0056763,0.0577393-0.0067749l7.3112183-0.2472534c0.0073853,0.0001831,0.0137329,0.0040283,0.0211792,0.0040283c0.0263672,0,0.0532227-0.0009766,0.0800781-0.0029297c0.0064697-0.0004883,0.0115356-0.0045166,0.0179443-0.005127l7.2971191-0.2467651c0.0024414,0.0001831,0.0042725,0.001709,0.0067139,0.0018921c0.0268555,0.0019531,0.0537109,0.0029297,0.0800781,0.0029297c0.017395,0,0.0322876-0.0085449,0.0494995-0.0094604l7.4781494-0.2529297c0.0073853,0.0001831,0.0148315,0.0026245,0.0221558,0.0026245c0.0085449,0,0.0162354-0.0039673,0.0247192-0.0042114l7.6871948-0.2599487c0.4428711-0.0151367,0.8227539-0.3193359,0.934082-0.7475586l6.9619141-26.765625c0.0800781-0.3076172,0.0092773-0.6347656-0.190918-0.8818359c-0.199707-0.2470703-0.503418-0.3833008-0.8232422-0.3691406L15.859314,17.9278564l-1.5839233-5.510376c-0.1147461-0.4003906-0.4658203-0.6870117-0.8813477-0.7202148L3.0795898,10.8720703c-0.5444336-0.0512695-1.0327148,0.3662109-1.0761719,0.9169922c-0.0444336,0.550293,0.3662109,1.0322266,0.9169922,1.0761719l9.6240234,0.7700195l10.0986328,35.1313477c0.5317383,1.8496094,2.2470703,3.1416016,4.1713867,3.1416016h1.3743286c-0.5134888,0.7434692-0.817688,1.6418457-0.817688,2.6118164c0,2.5424805,2.0688477,4.6113281,4.6118164,4.6113281s4.6118164-2.0688477,4.6118164-4.6113281c0-0.9699707-0.3041992-1.8683472-0.817688-2.6118164h13.1538696C48.4631958,52.6129761,48.1875,53.4558716,48.1875,54.3632812c0,2.456543,1.9985352,4.4550781,4.4550781,4.4550781s4.4550781-1.9985352,4.4550781-4.4550781c0-0.9074097-0.2756958-1.7503052-0.7434082-2.4550781h4.6120605c0.5522461,0,1-0.4477539,1-1s-0.4477539-1-1-1H26.8144531c-1.0375977,0-1.9624023-0.6967773-2.2495117-1.6943359l-0.7647705-2.6605225l6.1140747-0.2067871C29.9224243,45.3467407,29.9298096,45.3505859,29.9379883,45.3505859z M34.5947266,54.5200195c0,1.4399414-1.171875,2.6113281-2.6118164,2.6113281s-2.6118164-1.1713867-2.6118164-2.6113281s1.171875-2.6118164,2.6118164-2.6118164S34.5947266,53.0800781,34.5947266,54.5200195z M55.0976562,54.3632812c0,1.3535156-1.1015625,2.4550781-2.4550781,2.4550781S50.1875,55.7167969,50.1875,54.3632812s1.1015625-2.4550781,2.4550781-2.4550781S55.0976562,53.0097656,55.0976562,54.3632812z M18.7159424,27.8657227l6.2127686-0.215271l1.6858521,7.0698242l-5.869751,0.2037964L18.7159424,27.8657227z M26.9677734,27.579834l8.0239258-0.2780151l0.5644531,7.1079712l-6.9025879,0.2396851L26.9677734,27.579834z M61.5591431,33.5068359l-5.8139648,0.2019043l1.7146606-7.1853638l5.9694214-0.2067871L61.5591431,33.5068359z M53.6719971,33.7807007l-7.0806885,0.2458496l0.5665283-7.1462402l8.2288818-0.2850952L53.6719971,33.7807007z M45.8953247,42.8048706l0.5368652-6.7713623l6.7581787-0.2346802l-1.6261597,6.8143921L45.8953247,42.8048706z M44.4199219,36.1033936l-0.5366821,6.7695312l-5.6331787,0.1904907l-0.5341797-6.7272339L44.4199219,36.1033936z M37.557373,34.340271l-0.5644531-7.1077881l8.15271-0.2824097l-0.5665894,7.1463623L37.557373,34.340271z M47.3169556,24.8734131l0.5092773-6.4232788l9.6104126-0.4449463l-1.5682983,6.5719604L47.3169556,24.8734131z M45.3047485,24.9431152l-8.4703369,0.293457l-0.4967041-6.2545166l9.4744263-0.4386597L45.3047485,24.9431152z M34.8331909,25.3059082l-8.3387451,0.2888794l-1.4522095-6.0897827l9.2960815-0.4304199L34.8331909,25.3059082z M35.7146606,36.4057007l0.5341187,6.7254028l-5.5280762,0.1868896l-1.59375-6.6835327L35.7146606,36.4057007z M59.2583008,42.3530273l-5.6213989,0.1900635l1.6266479-6.8162231l5.7702637-0.2003784L59.2583008,42.3530273z M63.9545898,24.296936l-6.0131226,0.208374l1.5741577-6.5963745l6.1748047-0.2858887L63.9545898,24.296936z M23.0087891,19.5991821l1.4465332,6.0662842l-6.309021,0.2185669l-1.7189941-5.9801636L23.0087891,19.5991821z M21.3144531,36.9057007l5.7734375-0.2004395l1.5933228,6.6817017l-5.4507446,0.1843262L21.3144531,36.9057007z"></path></svg>